<svg xmlns="http://www.w3.org/2000/svg" viewBox="6149 -1783 40 40">
  <defs>
    <style>
      .cls-1, .cls-2, .cls-5 {
        fill: none;
      }

      .cls-2 {
        stroke: #9b9b9b;
        stroke-width: 1.5px;
      }

      .cls-3, .cls-4 {
        stroke: none;
      }

      .cls-4 {
        fill: #e3e3e3;
      }
    </style>
  </defs>
  <g id="Group_3420" data-name="Group 3420" transform="translate(5198 -1981)">
    <g id="Path_6918" data-name="Path 6918" class="cls-1" transform="translate(951 198)">
      <path class="cls-3" d="M20,0A20,20,0,1,1,0,20,20,20,0,0,1,20,0Z"/>
      <path class="cls-4" d="M 20 39 C 22.5654296875 39 25.05357933044434 38.49777984619141 27.39534950256348 37.50730133056641 C 29.65773963928223 36.55038833618164 31.68977928161621 35.18027877807617 33.43503189086914 33.43503189086914 C 35.18027877807617 31.68977928161621 36.55038833618164 29.65773963928223 37.50730133056641 27.39534950256348 C 38.49777984619141 25.05357933044434 39 22.5654296875 39 20 C 39 17.43457984924316 38.49777984619141 14.94641971588135 37.50730133056641 12.60464954376221 C 36.55038833618164 10.34226036071777 35.18027877807617 8.310219764709473 33.43503189086914 6.564970016479492 C 31.68977928161621 4.819719791412354 29.65773963928223 3.449609994888306 27.39534950256348 2.492700099945068 C 25.05357933044434 1.502220034599304 22.5654296875 1 20 1 C 17.43457984924316 1 14.94641971588135 1.502220034599304 12.60464954376221 2.492700099945068 C 10.34226036071777 3.449609994888306 8.310219764709473 4.819719791412354 6.564970016479492 6.564970016479492 C 4.819719791412354 8.310219764709473 3.449609994888306 10.34226036071777 2.492700099945068 12.60464954376221 C 1.502220034599304 14.94641971588135 1 17.43457984924316 1 20 C 1 22.5654296875 1.502220034599304 25.05357933044434 2.492700099945068 27.39534950256348 C 3.449609994888306 29.65773963928223 4.819719791412354 31.68977928161621 6.564970016479492 33.43503189086914 C 8.310219764709473 35.18027877807617 10.34226036071777 36.55038833618164 12.60464954376221 37.50730133056641 C 14.94641971588135 38.49777984619141 17.43457984924316 39 20 39 M 20 40 C 8.954310417175293 40 0 31.04570007324219 0 20 C 0 8.954310417175293 8.954310417175293 0 20 0 C 31.04570007324219 0 40 8.954310417175293 40 20 C 40 31.04570007324219 31.04570007324219 40 20 40 Z"/>
    </g>
    <g id="Group_3347" data-name="Group 3347" transform="translate(-396 29)">
      <path id="Path_9021" data-name="Path 9021" class="cls-2" d="M3885.865,4042.107v-4.637h-4.642" transform="translate(-2514 -3844)"/>
      <g id="Ellipse_2075" data-name="Ellipse 2075" class="cls-2" transform="translate(1360 180.3)">
        <circle class="cls-3" cx="5" cy="5" r="5"/>
        <circle class="cls-5" cx="5" cy="5" r="4.25"/>
      </g>
      <path id="Path_9022" data-name="Path 9022" class="cls-2" d="M3883.429,4040.787h-11.946s-.4-7.153,7.517-7.167" transform="translate(-2514 -3844)"/>
    </g>
  </g>
</svg>
