<svg id="Layer_4" data-name="Layer 4" xmlns="http://www.w3.org/2000/svg" xmlns:xlink="http://www.w3.org/1999/xlink" viewBox="0 0 214.26 24.63"><defs><style>.cls-1{fill:none;}.cls-2,.cls-5,.cls-7,.cls-8,.cls-9{isolation:isolate;}.cls-3{fill:#d5d5d5;}.cls-4{clip-path:url(#clip-path);}.cls-5,.cls-6{fill:#889e3c;stroke:#889e3c;}.cls-5,.cls-6,.cls-7,.cls-8,.cls-9{stroke-width:0.5px;}.cls-7{fill:#008faa;stroke:#008faa;}.cls-8{fill:#f8b715;stroke:#f8b715;}.cls-9{fill:#df5827;stroke:#df5827;}</style><clipPath id="clip-path"><circle class="cls-1" cx="13" cy="12" r="11"/></clipPath></defs><title>CommunityCommons</title><g id="Group_2937" data-name="Group 2937"><g id="COMMUNITY_COMMONS" data-name="COMMUNITY COMMONS" class="cls-2"><g class="cls-2"><path class="cls-3" d="M26.62,12.29a6.08,6.08,0,0,1,.36-2A5.68,5.68,0,0,1,28,8.43a5.31,5.31,0,0,1,1.7-1.3A5.11,5.11,0,0,1,32,6.63a4.78,4.78,0,0,1,2.61.69,4.29,4.29,0,0,1,1.62,1.79l-1.14.74a3.31,3.31,0,0,0-.62-.91,3.17,3.17,0,0,0-.78-.59A3.4,3.4,0,0,0,32.85,8a4.23,4.23,0,0,0-.88-.1,3.48,3.48,0,0,0-1.67.39,3.88,3.88,0,0,0-1.22,1,4.42,4.42,0,0,0-.74,1.42,5.3,5.3,0,0,0-.25,1.59,4.91,4.91,0,0,0,.3,1.7,4.69,4.69,0,0,0,.82,1.43,4,4,0,0,0,1.25,1,3.38,3.38,0,0,0,1.57.37,4,4,0,0,0,.92-.11,3.4,3.4,0,0,0,.9-.36,3.83,3.83,0,0,0,.81-.62,3.05,3.05,0,0,0,.62-.9l1.2.66a3.53,3.53,0,0,1-.76,1.13,4.84,4.84,0,0,1-1.1.82,5.63,5.63,0,0,1-1.3.51,5.42,5.42,0,0,1-1.34.18,4.54,4.54,0,0,1-2.14-.51,5.7,5.7,0,0,1-1.69-1.34,6.22,6.22,0,0,1-1.5-4Z"/><path class="cls-3" d="M42.75,18.13a4.83,4.83,0,0,1-2.18-.49,5.38,5.38,0,0,1-1.69-1.3,5.88,5.88,0,0,1-1.09-1.85,6.1,6.1,0,0,1-.38-2.13,5.9,5.9,0,0,1,.41-2.18,6,6,0,0,1,1.13-1.84,5.42,5.42,0,0,1,1.7-1.27,4.88,4.88,0,0,1,2.14-.47,4.66,4.66,0,0,1,2.18.5,5.57,5.57,0,0,1,1.68,1.32,6.13,6.13,0,0,1,1.47,4,5.9,5.9,0,0,1-.41,2.18,6,6,0,0,1-1.12,1.83,5.38,5.38,0,0,1-1.7,1.26A4.88,4.88,0,0,1,42.75,18.13Zm-3.89-5.76A5.07,5.07,0,0,0,39.14,14a4.62,4.62,0,0,0,.79,1.43,3.83,3.83,0,0,0,1.23,1,3.47,3.47,0,0,0,1.6.37,3.35,3.35,0,0,0,1.63-.39,4,4,0,0,0,1.22-1A4.57,4.57,0,0,0,46.39,14a5.1,5.1,0,0,0,0-3.29,4.44,4.44,0,0,0-.8-1.42,4,4,0,0,0-1.23-1,3.61,3.61,0,0,0-3.21,0,3.93,3.93,0,0,0-1.22,1,4.59,4.59,0,0,0-.78,1.42A5,5,0,0,0,38.86,12.37Z"/><path class="cls-3" d="M59.94,18.05V9.27L56.16,16h-.82L51.55,9.27v8.78H50.11V6.69h1.52l4.11,7.38,4.13-7.38h1.5V18.05Z"/><path class="cls-3" d="M73.92,18.05V9.27L70.14,16h-.82L65.54,9.27v8.78H64.1V6.69h1.52l4.11,7.38,4.13-7.38h1.5V18.05Z"/><path class="cls-3" d="M82.75,16.84a3.22,3.22,0,0,0,1.65-.38,3.06,3.06,0,0,0,1-1A4.12,4.12,0,0,0,86,14a8.09,8.09,0,0,0,.16-1.61V6.69H87.6v5.74a8.8,8.8,0,0,1-.26,2.18,5.21,5.21,0,0,1-.84,1.82A4,4,0,0,1,85,17.68a5,5,0,0,1-2.23.46,4.94,4.94,0,0,1-2.29-.48A4.14,4.14,0,0,1,79,16.38a5.15,5.15,0,0,1-.82-1.82,9,9,0,0,1-.25-2.12V6.69h1.44v5.74a7.87,7.87,0,0,0,.17,1.64,4.14,4.14,0,0,0,.56,1.4,3,3,0,0,0,1,1A3.19,3.19,0,0,0,82.75,16.84Z"/><path class="cls-3" d="M91.6,9.38v8.67H90.16V6.69h1.12l7,8.85V6.71h1.44V18.05H98.54Z"/><path class="cls-3" d="M102.48,18.05V6.69h1.44V18.05Z"/><path class="cls-3" d="M114.83,8h-3.92V18.05h-1.44V8h-3.92V6.69h9.28Z"/><path class="cls-3" d="M116.89,6.69l3.44,5.92,3.47-5.92h1.57l-4.32,7.22v4.14h-1.44V13.88l-4.3-7.18Z"/><path class="cls-3" d="M129.66,12.29a6.07,6.07,0,0,1,.36-2,5.68,5.68,0,0,1,1.06-1.82,5.32,5.32,0,0,1,1.7-1.3,5.11,5.11,0,0,1,2.29-.5,4.79,4.79,0,0,1,2.61.69,4.28,4.28,0,0,1,1.62,1.79l-1.14.74a3.31,3.31,0,0,0-.62-.91,3.2,3.2,0,0,0-.78-.59,3.4,3.4,0,0,0-.87-.32,4.23,4.23,0,0,0-.88-.1,3.48,3.48,0,0,0-1.67.39,3.87,3.87,0,0,0-1.22,1,4.42,4.42,0,0,0-.74,1.42,5.28,5.28,0,0,0-.25,1.59,4.91,4.91,0,0,0,.3,1.7,4.68,4.68,0,0,0,.82,1.43,4,4,0,0,0,1.25,1,3.38,3.38,0,0,0,1.57.37,4,4,0,0,0,.92-.11,3.41,3.41,0,0,0,.9-.36,3.85,3.85,0,0,0,.81-.62,3.06,3.06,0,0,0,.62-.9l1.2.66a3.52,3.52,0,0,1-.76,1.13,4.82,4.82,0,0,1-1.1.82,5.63,5.63,0,0,1-1.3.51,5.42,5.42,0,0,1-1.34.18,4.54,4.54,0,0,1-2.14-.51,5.7,5.7,0,0,1-1.69-1.34,6.21,6.21,0,0,1-1.5-4Z"/><path class="cls-3" d="M145.79,18.13a4.84,4.84,0,0,1-2.18-.49,5.37,5.37,0,0,1-1.69-1.3,5.88,5.88,0,0,1-1.09-1.85,6.1,6.1,0,0,1-.38-2.13,5.9,5.9,0,0,1,.41-2.18A6,6,0,0,1,142,8.36a5.41,5.41,0,0,1,1.7-1.27,4.88,4.88,0,0,1,2.14-.47,4.66,4.66,0,0,1,2.18.5,5.57,5.57,0,0,1,1.68,1.32,6.13,6.13,0,0,1,1.47,4,5.89,5.89,0,0,1-.41,2.18,6,6,0,0,1-1.12,1.83,5.39,5.39,0,0,1-1.7,1.26A4.88,4.88,0,0,1,145.79,18.13Zm-3.89-5.76a5,5,0,0,0,.28,1.67,4.61,4.61,0,0,0,.79,1.43,3.83,3.83,0,0,0,1.23,1,3.47,3.47,0,0,0,1.6.37,3.36,3.36,0,0,0,1.63-.39,4,4,0,0,0,1.22-1,4.57,4.57,0,0,0,.77-1.43,5.13,5.13,0,0,0,.26-1.62,5.07,5.07,0,0,0-.28-1.67,4.44,4.44,0,0,0-.8-1.42,4,4,0,0,0-1.23-1,3.61,3.61,0,0,0-3.21,0,3.93,3.93,0,0,0-1.22,1,4.58,4.58,0,0,0-.78,1.42A5,5,0,0,0,141.9,12.37Z"/><path class="cls-3" d="M163,18.05V9.27L159.2,16h-.82l-3.79-6.74v8.78h-1.44V6.69h1.52l4.11,7.38,4.13-7.38h1.5V18.05Z"/><path class="cls-3" d="M177,18.05V9.27L173.18,16h-.82l-3.79-6.74v8.78h-1.44V6.69h1.52l4.11,7.38,4.13-7.38h1.5V18.05Z"/><path class="cls-3" d="M185.73,18.13a4.84,4.84,0,0,1-2.18-.49,5.37,5.37,0,0,1-1.69-1.3,5.88,5.88,0,0,1-1.09-1.85,6.1,6.1,0,0,1-.38-2.13,5.9,5.9,0,0,1,.41-2.18,6,6,0,0,1,1.13-1.84,5.41,5.41,0,0,1,1.7-1.27,4.88,4.88,0,0,1,2.14-.47,4.66,4.66,0,0,1,2.18.5,5.57,5.57,0,0,1,1.68,1.32,6.13,6.13,0,0,1,1.47,4,5.89,5.89,0,0,1-.41,2.18,6,6,0,0,1-1.12,1.83,5.39,5.39,0,0,1-1.7,1.26A4.88,4.88,0,0,1,185.73,18.13Zm-3.89-5.76a5,5,0,0,0,.28,1.67,4.61,4.61,0,0,0,.79,1.43,3.83,3.83,0,0,0,1.23,1,3.47,3.47,0,0,0,1.6.37,3.36,3.36,0,0,0,1.63-.39,4,4,0,0,0,1.22-1,4.57,4.57,0,0,0,.77-1.43,5.13,5.13,0,0,0,.26-1.62,5.07,5.07,0,0,0-.28-1.67,4.44,4.44,0,0,0-.8-1.42,4,4,0,0,0-1.23-1,3.61,3.61,0,0,0-3.21,0,3.93,3.93,0,0,0-1.22,1,4.58,4.58,0,0,0-.78,1.42A5,5,0,0,0,181.84,12.37Z"/><path class="cls-3" d="M194.53,9.38v8.67h-1.44V6.69h1.12l7,8.85V6.71h1.44V18.05h-1.22Z"/><path class="cls-3" d="M212.08,9.08a2.4,2.4,0,0,0-.51-.43,4.62,4.62,0,0,0-.72-.38A5,5,0,0,0,210,8a4.57,4.57,0,0,0-1-.1,3.09,3.09,0,0,0-1.94.5,1.65,1.65,0,0,0-.62,1.36,1.51,1.51,0,0,0,.18.77,1.45,1.45,0,0,0,.55.52,4.21,4.21,0,0,0,.94.38q.56.16,1.33.34a13.88,13.88,0,0,1,1.59.44,4.67,4.67,0,0,1,1.22.62,2.46,2.46,0,0,1,.77.9,2.88,2.88,0,0,1,.26,1.3,3,3,0,0,1-.32,1.42,2.84,2.84,0,0,1-.87,1,3.77,3.77,0,0,1-1.3.58,6.84,6.84,0,0,1-1.63.18,7.55,7.55,0,0,1-2.49-.41,7,7,0,0,1-2.14-1.19l.69-1.22a3.8,3.8,0,0,0,.66.54,5.45,5.45,0,0,0,.93.49,6.83,6.83,0,0,0,1.12.35,5.66,5.66,0,0,0,1.26.14,3.48,3.48,0,0,0,1.89-.43,1.59,1.59,0,0,0,.46-2.1,1.84,1.84,0,0,0-.63-.57,4.89,4.89,0,0,0-1-.42q-.62-.18-1.4-.38a14,14,0,0,1-1.52-.45,4.12,4.12,0,0,1-1.1-.58,2.17,2.17,0,0,1-.66-.82,2.71,2.71,0,0,1-.22-1.15,3.24,3.24,0,0,1,.3-1.44,3,3,0,0,1,.85-1.06,3.69,3.69,0,0,1,1.3-.65,5.88,5.88,0,0,1,5.36,1.08Z"/></g></g></g><g class="cls-4"><path class="cls-5" d="M13.38,17.75a6,6,0,1,0,6,6A6,6,0,0,0,13.38,17.75Zm0,10a4,4,0,1,1,4-4A4,4,0,0,1,13.38,27.75Z"/><path class="cls-6" d="M13.38,14.25a9.5,9.5,0,1,0,9.5,9.5A9.5,9.5,0,0,0,13.38,14.25Zm0,17a7.5,7.5,0,1,1,7.5-7.5A7.5,7.5,0,0,1,13.38,31.25Z"/><path class="cls-7" d="M-4.5,12.5a6,6,0,1,0,6-6A6,6,0,0,0-4.5,12.5Zm10,0a4,4,0,1,1-4-4A4,4,0,0,1,5.5,12.5Z"/><path class="cls-7" d="M-8,12.5A9.5,9.5,0,1,0,1.5,3,9.5,9.5,0,0,0-8,12.5Zm17,0A7.5,7.5,0,1,1,1.5,5,7.5,7.5,0,0,1,9,12.5Z"/><path class="cls-8" d="M7.38,1.5a6,6,0,1,0,6-6A6,6,0,0,0,7.38,1.5Zm10,0a4,4,0,1,1-4-4A4,4,0,0,1,17.38,1.5Z"/><path class="cls-8" d="M3.88,1.5A9.5,9.5,0,1,0,13.38-8,9.5,9.5,0,0,0,3.88,1.5Zm17,0A7.5,7.5,0,1,1,13.38-6,7.5,7.5,0,0,1,20.88,1.5Z"/><path class="cls-9" d="M19.5,12.5a6,6,0,1,0,6-6A6,6,0,0,0,19.5,12.5Zm10,0a4,4,0,1,1-4-4A4,4,0,0,1,29.5,12.5Z"/><path class="cls-9" d="M16,12.5A9.5,9.5,0,1,0,25.5,3,9.5,9.5,0,0,0,16,12.5Zm17,0A7.5,7.5,0,1,1,25.5,5,7.5,7.5,0,0,1,33,12.5Z"/></g></svg>