<svg id="_33x33icons" data-name="33x33icons" xmlns="http://www.w3.org/2000/svg" viewBox="0 0 33 33"><defs><style>.cls-1{fill:none;}.cls-2{fill:#5a5a5a;}.cls-3{isolation:isolate;}</style></defs><title>iconTag-1</title><g id="Group_2552" data-name="Group 2552"><g id="Union_104" data-name="Union 104"><path class="cls-1" d="M14.95,26.27H10.07s-8.6-7.89-8.57-9.59,8.76-9.94,8.76-9.94H28.74A2.76,2.76,0,0,1,31.5,9.5v14a2.76,2.76,0,0,1-2.76,2.76Z"/><path class="cls-2" d="M28.74,23.5h0V9.5H11.37c-.72.7-1.85,1.8-3,3A47.05,47.05,0,0,0,4.6,16.68a43.38,43.38,0,0,0,3.62,4c1.13,1.14,2.23,2.19,2.94,2.85H28.74m0,2.76H10.07s-8.6-7.89-8.57-9.59,8.76-9.95,8.76-9.95H28.74A2.76,2.76,0,0,1,31.5,9.5v14A2.76,2.76,0,0,1,28.74,26.27Z"/></g><g class="cls-3"><path class="cls-2" d="M21.86,13.95a1.76,1.76,0,0,1,1-.56.77.77,0,0,1,.69.8c0,.51-.27.75-1.1,1l-2.43.88a.67.67,0,0,1,0,.51l2.3.83c.4.13,1.26.45,1.26,1.12a.85.85,0,0,1-.75.8,2.09,2.09,0,0,1-1.28-.77l-1.66-1.66a.64.64,0,0,1-.45.24l.45,2.43a8.78,8.78,0,0,1,.11,1.1.77.77,0,0,1-.75.8.76.76,0,0,1-.8-.83,6.48,6.48,0,0,1,.19-1.12l.46-2.38a.56.56,0,0,1-.43-.24L16.91,18.6c-.56.51-.91.75-1.23.75a.79.79,0,0,1-.75-.83c0-.4.19-.64,1.36-1.07l2.25-.83a.53.53,0,0,1-.05-.24.79.79,0,0,1,.05-.27l-2.57-1c-.64-.24-1-.53-1-1a.8.8,0,0,1,.75-.83c.37,0,.94.51,1,.59l2,1.82a.61.61,0,0,1,.43-.21l-.43-2.3a5.67,5.67,0,0,1-.16-1c0-.53.24-1,.78-1s.75.53.75.88a6.28,6.28,0,0,1-.13,1.1l-.45,2.3c.19,0,.29.05.45.21Z"/></g></g></svg>