<svg xmlns="http://www.w3.org/2000/svg" viewBox="5082 -1844.541 28.004 20.366">
  <defs>
    <style>
      .cls-1 {
        fill: none;
      }

      .cls-2, .cls-3 {
        stroke: none;
      }

      .cls-3 {
        fill: #5a5a5a;
      }
    </style>
  </defs>
  <g id="Subtraction_83" data-name="Subtraction 83" class="cls-1" transform="translate(13802 -3416.54)">
    <path class="cls-2" d="M-8695,1592.365h-22a3,3,0,0,1-3-3v-9.729h28v9.729A3,3,0,0,1-8695,1592.365Zm3-14h-28V1575a3,3,0,0,1,3-3h22a3,3,0,0,1,3,3v3.364Z"/>
    <path class="cls-3" d="M -8694.99609375 1590.865234375 C -8694.1689453125 1590.865234375 -8693.49609375 1590.192504882812 -8693.49609375 1589.365600585938 L -8693.49609375 1581.136596679688 L -8718.5 1581.136596679688 L -8718.5 1589.365600585938 C -8718.5 1590.192504882812 -8717.8271484375 1590.865234375 -8717 1590.865234375 L -8694.99609375 1590.865234375 M -8693.49609375 1576.863891601562 L -8693.49609375 1574.998901367188 C -8693.49609375 1574.171997070312 -8694.1689453125 1573.499145507812 -8694.99609375 1573.499145507812 L -8717 1573.499145507812 C -8717.8271484375 1573.499145507812 -8718.5 1574.171997070312 -8718.5 1574.998901367188 L -8718.5 1576.863891601562 L -8693.49609375 1576.863891601562 M -8694.99609375 1592.365234375 L -8717 1592.365234375 C -8718.654296875 1592.365234375 -8720 1591.01953125 -8720 1589.365600585938 L -8720 1579.636596679688 L -8691.99609375 1579.636596679688 L -8691.99609375 1589.365600585938 C -8691.99609375 1591.01953125 -8693.341796875 1592.365234375 -8694.99609375 1592.365234375 Z M -8691.99609375 1578.363891601562 L -8691.9970703125 1578.363891601562 L -8720 1578.363891601562 L -8720 1574.998901367188 C -8720 1573.344848632812 -8718.654296875 1571.999145507812 -8717 1571.999145507812 L -8694.99609375 1571.999145507812 C -8693.341796875 1571.999145507812 -8691.99609375 1573.344848632812 -8691.99609375 1574.998901367188 L -8691.99609375 1578.362915039062 L -8691.99609375 1578.363891601562 Z"/>
  </g>
</svg>
