<svg xmlns="http://www.w3.org/2000/svg" viewBox="0 0 10.582 10.582">
  <defs>
    <style>
      .cls-1, .cls-4 {
        fill: none;
      }

      .cls-1 {
        stroke: #008faa;
        stroke-width: 0.75px;
      }

      .cls-2 {
        fill: #008faa;
      }

      .cls-3 {
        stroke: none;
      }
    </style>
  </defs>
  <g id="Group_4102" data-name="Group 4102" transform="translate(-9738 4744)">
    <g id="Ellipse_2200" data-name="Ellipse 2200" class="cls-1" transform="translate(9738 -4744)">
      <circle class="cls-3" cx="5.291" cy="5.291" r="5.291"/>
      <circle class="cls-4" cx="5.291" cy="5.291" r="4.916"/>
    </g>
    <path id="Path_9753" data-name="Path 9753" class="cls-2" d="M2.29-31.245a.4.4,0,0,1,.293.121.4.4,0,0,1,.121.293.406.406,0,0,1-.121.3.4.4,0,0,1-.293.123.4.4,0,0,1-.3-.123.4.4,0,0,1-.123-.3.4.4,0,0,1,.121-.293A.4.4,0,0,1,2.29-31.245Zm.34,1.964v3.017a1.382,1.382,0,0,0,.051.469.36.36,0,0,0,.152.174.812.812,0,0,0,.367.057v.148H1.376v-.148a.849.849,0,0,0,.369-.053.366.366,0,0,0,.15-.176,1.325,1.325,0,0,0,.055-.471v-1.447a5.117,5.117,0,0,0-.037-.791.322.322,0,0,0-.09-.182.255.255,0,0,0-.168-.051.821.821,0,0,0-.279.061l-.057-.148,1.131-.459Z" transform="translate(9741.1 -4710.308)"/>
  </g>
</svg>
