<svg id="_33x33icons" data-name="33x33icons" xmlns="http://www.w3.org/2000/svg" viewBox="0 0 33 33"><defs><style>.cls-1,.cls-2,.cls-4{fill:none;}.cls-2{stroke:#5a5a5a;}.cls-3{fill:#5a5a5a;}.cls-4{stroke:#5b5850;}</style></defs><title>iconPackager</title><g id="Group_3175" data-name="Group 3175"><g id="Rectangle_4901" data-name="Rectangle 4901"><rect class="cls-1" x="5" y="9.96" width="23" height="18" rx="1" ry="1"/><rect class="cls-2" x="5.5" y="10.46" width="22" height="17" rx="0.5" ry="0.5"/></g><g id="Rectangle_4903" data-name="Rectangle 4903"><rect class="cls-1" x="14" y="9.96" width="5" height="18"/><rect class="cls-2" x="14.5" y="10.46" width="4" height="17"/></g><g id="Path_7199" data-name="Path 7199"><path class="cls-3" d="M17.84,9.78a9.22,9.22,0,0,0,3.89-1.29,1.24,1.24,0,0,0,.37-1.41c-.15-.51-.53-1-1.07-1-.32,0-1.46.21-3,3a3,3,0,0,0-.22.78m-2.12,0A3.18,3.18,0,0,0,15.48,9V9C14.6,7.11,13.57,6,12.63,6a1.82,1.82,0,0,0-1.57,1.29c0,.12-.14.53.07.67a9.82,9.82,0,0,0,4.59,1.76m1.07,1.06a10.75,10.75,0,0,1-6.23-2c-1.38-1,0-3.79,2.07-3.79,1.16,0,2.52.89,3.73,3.48a5,5,0,0,1,.42,1.7,4.62,4.62,0,0,1,.38-1.7C18.59,5.94,20,5,21,5c2,0,3,3.21,1.23,4.3A10.49,10.49,0,0,1,16.79,10.83Z"/></g><line id="Line_699" data-name="Line 699" class="cls-4" x1="5.5" y1="15.46" x2="14.5" y2="15.46"/><line id="Line_700" data-name="Line 700" class="cls-4" x1="18.5" y1="15.46" x2="27.5" y2="15.46"/></g></svg>