<svg xmlns="http://www.w3.org/2000/svg" viewBox="1796 -1324.985 21.473 26.286">
  <defs>
    <style>
      .cls-1 {
        fill: #989898;
      }
    </style>
  </defs>
  <g id="Symbol_112" data-name="Symbol 112" transform="translate(1781 -1966)">
    <path id="Path_7163" data-name="Path 7163" class="cls-1" d="M9.577,15.085V13.98a.6.6,0,0,0-.335-.536c-.7-.335-1.373-.7-1.942-1.038A7.454,7.454,0,0,0,3.75,11.1a5,5,0,0,0-.7.067A8.433,8.433,0,0,0,.234,12.305.7.7,0,0,0,0,12.774a.608.608,0,0,0,.2.469,16.237,16.237,0,0,0,4.32,2.545,5.435,5.435,0,0,0,1.741.268,11.777,11.777,0,0,0,2.88-.435A.565.565,0,0,0,9.577,15.085ZM8.4,14.616a10.563,10.563,0,0,1-2.143.268,3.892,3.892,0,0,1-1.339-.2,15.3,15.3,0,0,1-3.282-1.808,6.618,6.618,0,0,1,1.641-.569c1.072-.2,2.076.335,3.449,1.105.5.268,1.038.6,1.674.9v.3Z" transform="translate(15 633.632)"/>
    <path id="Path_7164" data-name="Path 7164" class="cls-1" d="M44.942,12.405a7.724,7.724,0,0,0-2.813-1.139,5,5,0,0,0-.7-.067,7.58,7.58,0,0,0-3.549,1.306c-.569.335-1.205.67-1.942,1.038a.6.6,0,0,0-.335.536v1.072a.616.616,0,0,0,.4.569,10.483,10.483,0,0,0,2.88.435h0a5.435,5.435,0,0,0,1.741-.268,16.237,16.237,0,0,0,4.32-2.545.549.549,0,0,0,.2-.469A.429.429,0,0,0,44.942,12.405Zm-4.688,2.377a3.892,3.892,0,0,1-1.339.2h0a10.9,10.9,0,0,1-2.143-.268v-.268c.6-.3,1.172-.6,1.674-.9,1.373-.77,2.377-1.339,3.449-1.105a7.77,7.77,0,0,1,1.641.569A17.866,17.866,0,0,1,40.255,14.783Z" transform="translate(-8.679 633.565)"/>
    <path id="Path_7165" data-name="Path 7165" class="cls-1" d="M26.119,16.977A3.261,3.261,0,0,0,27.994,14.8c.435-1.741-.1-3.851-2.311-4.42a.585.585,0,1,0-.268,1.139,2.317,2.317,0,0,1,1.473,3.014c-.234.9-.971,1.44-2.411,1.741V5.559a2.831,2.831,0,0,0,2.244-2.746,2.813,2.813,0,1,0-5.626,0,2.831,2.831,0,0,0,2.244,2.746V16.274c-1.473-.3-2.177-.837-2.411-1.741A2.327,2.327,0,0,1,22.4,11.519a.585.585,0,1,0-.268-1.139c-2.21.569-2.746,2.679-2.311,4.42A3.181,3.181,0,0,0,21.7,16.977a3.267,3.267,0,0,0-1.406,1.239,3.779,3.779,0,0,0-.134,3.851,3.53,3.53,0,0,0,3.215,1.842v1.775a.6.6,0,0,0,1.205,0V23.909a3.53,3.53,0,0,0,3.215-1.842,3.7,3.7,0,0,0-.134-3.851A3.934,3.934,0,0,0,26.119,16.977ZM22.2,2.813a1.641,1.641,0,1,1,1.641,1.641A1.643,1.643,0,0,1,22.2,2.813ZM21.062,21.5a2.58,2.58,0,0,1,.067-2.645,2.9,2.9,0,0,1,2.11-1.139v5.023A2.426,2.426,0,0,1,21.062,21.5Zm5.559,0a2.444,2.444,0,0,1-2.21,1.239V17.714a2.778,2.778,0,0,1,2.11,1.139A2.507,2.507,0,0,1,26.621,21.5Z" transform="translate(1.907 641.015)"/>
  </g>
</svg>
