<svg xmlns="http://www.w3.org/2000/svg" viewBox="0 0 22.74 26.09"><defs><style>.cls-1{fill:#fff;}</style></defs><title>iconFilterWhite</title><g id="_20x20_icons" data-name="20x20 icons"><path class="cls-1" d="M11.49,15.82a5,5,0,0,1,1.44.21V.54H10V16A5,5,0,0,1,11.49,15.82Z"/><path class="cls-1" d="M11.49,20.49A5,5,0,0,1,10,20.28v5.27h2.88V20.28A5,5,0,0,1,11.49,20.49Z"/><path class="cls-1" d="M19.64,6.82A5,5,0,0,1,21,7V.54H18.13V7.06A4.93,4.93,0,0,1,19.64,6.82Z"/><path class="cls-1" d="M19.64,11.49a4.93,4.93,0,0,1-1.51-.24V25.54H21V11.3A5,5,0,0,1,19.64,11.49Z"/><path class="cls-1" d="M3.44,10.82a4.93,4.93,0,0,1,1.51.24V.54H2.07V11A5,5,0,0,1,3.44,10.82Z"/><path class="cls-1" d="M3.44,15.49a5,5,0,0,1-1.37-.19V25.54H4.95V15.25A4.93,4.93,0,0,1,3.44,15.49Z"/><ellipse class="cls-1" cx="19.57" cy="9.84" rx="2.97" ry="2"/><ellipse class="cls-1" cx="3.51" cy="13.84" rx="2.97" ry="2"/><ellipse class="cls-1" cx="11.49" cy="18.84" rx="2.97" ry="2"/></g></svg>