<svg xmlns="http://www.w3.org/2000/svg" viewBox="5522.148 -1845 21.041 21.041">
  <defs>
    <style>
      .cls-1 {
        fill: #fff;
      }

      .cls-2, .cls-3 {
        stroke: none;
      }

      .cls-3 {
        fill: #008faa;
      }
    </style>
  </defs>
  <g id="Path_9024" data-name="Path 9024" class="cls-1" transform="translate(5527.805 -1833.765) rotate(-45)">
    <path class="cls-2" d="M 14.2126636505127 4.867497444152832 L -2.970716238021851 4.867497444152832 C -3.047546148300171 4.867497444152832 -3.065796136856079 4.867497444152832 -3.499086141586304 4.559777736663818 C -3.958604335784912 4.233428001403809 -4.644974231719971 3.745992660522461 -5.920939445495605 3.065504789352417 C -4.69007396697998 2.288626432418823 -4.000980854034424 1.74391496181488 -3.539546251296997 1.379157543182373 C -3.329666137695312 1.213247537612915 -3.091776132583618 1.025197505950928 -3.022506237030029 1.002997517585754 C -3.022510528564453 1.002998828887939 -3.022511720657349 1.002999424934387 -3.022510290145874 1.002999424934387 C -3.022400617599487 1.002999424934387 -3.008299350738525 0.9999975562095642 -2.970716238021851 0.9999975562095642 L 14.2126636505127 0.9999975562095642 C 14.58564376831055 0.9999975562095642 14.88908386230469 1.303447484970093 14.88908386230469 1.676427483558655 L 14.88908386230469 4.191067695617676 C 14.88908386230469 4.564047336578369 14.58564376831055 4.867497444152832 14.2126636505127 4.867497444152832 Z"/>
    <path class="cls-3" d="M 13.88908386230469 3.867497444152832 L 13.88908386230469 1.999997496604919 L -2.710970401763916 1.999997496604919 C -2.77694296836853 2.051028251647949 -2.852210521697998 2.110526084899902 -2.919416189193726 2.163647413253784 C -3.19185209274292 2.379005432128906 -3.541047334671021 2.655034303665161 -4.026129245758057 3.001038312911987 C -3.537446737289429 3.306003570556641 -3.190974712371826 3.552068471908569 -2.920056104660034 3.744477510452271 C -2.863946914672852 3.784320592880249 -2.801321506500244 3.828794479370117 -2.745745182037354 3.867497444152832 L 13.88908386230469 3.867497444152832 M 14.2126636505127 5.867497444152832 L -2.970716238021851 5.867497444152832 C -3.896586179733276 5.867497444152832 -3.80893611907959 5.116937637329102 -7.999996185302734 3.145167589187622 C -3.80893611907959 0.750557541847229 -3.896586179733276 -2.470016397637664e-06 -2.970716238021851 -2.470016397637664e-06 L 14.2126636505127 -2.470016397637664e-06 C 15.13852405548096 -2.470016397637664e-06 15.88908386230469 0.750557541847229 15.88908386230469 1.676427483558655 L 15.88908386230469 4.191067695617676 C 15.88908386230469 5.116937637329102 15.13852405548096 5.867497444152832 14.2126636505127 5.867497444152832 Z"/>
  </g>
</svg>
