<svg xmlns="http://www.w3.org/2000/svg" viewBox="1790.75 -1476.512 31.951 25.262">
  <defs>
    <style>
      .cls-1 {
        fill: #989898;
        stroke: #989898;
        stroke-width: 0.5px;
      }
    </style>
  </defs>
  <g id="Symbol_114" data-name="Symbol 114" transform="translate(1779 -1964)">
    <g id="Group_3120" data-name="Group 3120" transform="translate(12 487.738)">
      <path id="Path_7171" data-name="Path 7171" class="cls-1" d="M23.935,24.762H.388a.334.334,0,0,1-.3-.182.508.508,0,0,1-.03-.365l11.789-24a.369.369,0,0,1,.668,0L24.3,24.246a.323.323,0,0,1-.03.365A.488.488,0,0,1,23.935,24.762ZM.966,24.033H23.358L12.177,1.185Z" transform="translate(-0.034)"/>
    </g>
    <g id="Group_3121" data-name="Group 3121" transform="translate(30.208 493.48)">
      <path id="Path_7172" data-name="Path 7172" class="cls-1" d="M72.8,37.92H65.26a.365.365,0,0,1,0-.729h6.927L63.832,20.115l-3.19,6.472A.36.36,0,1,1,60,26.253l3.524-7.14a.374.374,0,0,1,.334-.213h0a.374.374,0,0,1,.334.213L73.16,37.4a.323.323,0,0,1-.03.365A.488.488,0,0,1,72.8,37.92Z" transform="translate(-59.962 -18.9)"/>
    </g>
    <g id="Group_3122" data-name="Group 3122" transform="translate(19.202 495.595)">
      <path id="Path_7173" data-name="Path 7173" class="cls-1" d="M26.581,32.133a.334.334,0,0,1-.3-.182l-2.491-4.1a.354.354,0,1,1,.608-.365l2.157,3.555,2.127-3.889a.352.352,0,0,1,.577-.061l1.428,1.671,1.519-2.7a.36.36,0,1,1,.638.334l-1.762,3.16a.352.352,0,0,1-.577.061L29.1,27.94l-2.157,3.98a.463.463,0,0,1-.365.213Z" transform="translate(-23.736 -25.862)"/>
    </g>
  </g>
</svg>
