<svg xmlns="http://www.w3.org/2000/svg" viewBox="3640.443 -1129.708 21.56 13.76">
  <defs>
    <style>
      .cls-1 {
        fill: none;
      }

      .cls-2, .cls-3 {
        stroke: none;
      }

      .cls-3 {
        fill: #5a5a5a;
      }
    </style>
  </defs>
  <g id="Union_104" data-name="Union 104" class="cls-1" transform="translate(3662.003 -1115.948) rotate(180)">
    <path class="cls-2" d="M9.665,13.76H6.16S-.02,8.2,0,7.006,6.3,0,6.3,0H18.56a3,3,0,0,1,3,3V10.76a3,3,0,0,1-3,3Z"/>
    <path class="cls-3" d="M 18.55980110168457 12.26010036468506 C 19.38674163818359 12.26010036468506 20.05950164794922 11.58734035491943 20.05950164794922 10.76039981842041 L 20.05950164794922 2.99970006942749 C 20.05950164794922 2.172760248184204 19.38674163818359 1.500000238418579 18.55980110168457 1.500000238418579 L 8.204401016235352 1.500000238418579 L 6.88940954208374 1.500000238418579 C 6.371782302856445 1.98853063583374 5.449366569519043 2.869591236114502 4.500010967254639 3.827290296554565 C 2.686276435852051 5.656969547271729 1.942317485809326 6.584700107574463 1.642518043518066 7.013347148895264 C 1.936716079711914 7.429921627044678 2.662043333053589 8.321759223937988 4.418640613555908 10.05399990081787 C 5.34015941619873 10.96274471282959 6.235050678253174 11.79553699493408 6.740732192993164 12.26010036468506 L 9.665101051330566 12.26010036468506 L 18.55980110168457 12.26010036468506 M 18.55980110168457 13.76010036468506 L 9.665101051330566 13.76010036468506 L 6.159600734710693 13.76010036468506 C 6.159600734710693 13.76010036468506 -0.01979926973581314 8.201700210571289 7.308959766305634e-07 7.005599975585938 C 0.01980073004961014 5.809500217437744 6.296400547027588 1.823425321845207e-07 6.296400547027588 1.823425321845207e-07 L 8.204401016235352 1.823425321845207e-07 L 18.55980110168457 1.823425321845207e-07 C 20.21670150756836 1.823425321845207e-07 21.55950164794922 1.342800140380859 21.55950164794922 2.99970006942749 L 21.55950164794922 10.76039981842041 C 21.55950164794922 12.4173002243042 20.21670150756836 13.76010036468506 18.55980110168457 13.76010036468506 Z"/>
  </g>
</svg>
