<svg xmlns="http://www.w3.org/2000/svg" viewBox="1799.458 -1154 22.542 14.69">
  <defs>
    <style>
      .cls-1 {
        fill: none;
      }

      .cls-2 {
        fill: #989898;
      }
    </style>
  </defs>
  <g id="iconTag-1" transform="translate(1823.5 -1132.57) rotate(180)">
    <g id="Union_104" data-name="Union 104" transform="translate(1.5 6.74)">
      <path id="Path_7222" data-name="Path 7222" class="cls-1" d="M11.606,21.415H7.939S1.477,15.486,1.5,14.209,8.082,6.74,8.082,6.74H21.968a2.074,2.074,0,0,1,2.074,2.074V19.333a2.074,2.074,0,0,1-2.074,2.074Z" transform="translate(-1.5 -6.74)"/>
      <path id="Path_7223" data-name="Path 7223" class="cls-2" d="M21.968,19.336h0V8.816H8.916c-.541.526-1.39,1.353-2.254,2.254a35.353,35.353,0,0,0-2.833,3.141,32.6,32.6,0,0,0,2.72,3.006c.849.857,1.676,1.646,2.209,2.141H21.968m0,2.074H7.939S1.477,15.5,1.5,14.226,8.082,6.75,8.082,6.75H21.968a2.074,2.074,0,0,1,2.074,2.066V19.336a2.074,2.074,0,0,1-2.074,2.081Z" transform="translate(-1.5 -6.742)"/>
    </g>
    <g id="Group_3211" data-name="Group 3211" transform="translate(10.839 10.076)">
      <path id="Path_7224" data-name="Path 7224" class="cls-2" d="M20.137,13.261a1.322,1.322,0,0,1,.751-.421.579.579,0,0,1,.518.6c0,.383-.2.564-.827.751l-1.826.661a.5.5,0,0,1,0,.383l1.728.624c.3.1.947.338.947.842a.639.639,0,0,1-.564.6,1.57,1.57,0,0,1-.962-.579l-1.247-1.247a.481.481,0,0,1-.338.18l.338,1.826a6.6,6.6,0,0,1,.083.827.579.579,0,0,1-.564.6.571.571,0,0,1-.6-.624,4.869,4.869,0,0,1,.143-.842l.346-1.788a.421.421,0,0,1-.323-.18l-1.322,1.277c-.421.383-.684.564-.924.564a.594.594,0,0,1-.564-.624c0-.3.143-.481,1.022-.8l1.691-.624a.4.4,0,0,1-.038-.18.594.594,0,0,1,.038-.2l-1.931-.751c-.481-.18-.751-.4-.751-.751a.6.6,0,0,1,.564-.624,1.493,1.493,0,0,1,.751.443l1.5,1.368a.458.458,0,0,1,.323-.158l-.323-1.728a4.26,4.26,0,0,1-.12-.751c0-.4.18-.751.586-.751a.614.614,0,0,1,.564.661,4.719,4.719,0,0,1-.1.827L18.371,14.4a.413.413,0,0,1,.338.158Z" transform="translate(-14.929 -11.18)"/>
    </g>
  </g>
</svg>
