<svg xmlns="http://www.w3.org/2000/svg" viewBox="4815.675 -1314.31 24.774 24.898">
  <defs>
    <style>
      .cls-1 {
        fill: #989898;
        stroke: #989898;
      }
    </style>
  </defs>
  <g id="Group_3361" data-name="Group 3361" transform="translate(4816.175 -1313.773)">
    <path id="Path_6879" data-name="Path 6879" class="cls-1" d="M12.7,17.4a4.7,4.7,0,0,1,0-9.4,4.786,4.786,0,0,1,4.7,4.7A4.669,4.669,0,0,1,12.7,17.4Zm0-8.407A3.706,3.706,0,1,0,16.407,12.7,3.723,3.723,0,0,0,12.7,8.994Z" transform="translate(-0.768 -0.772)"/>
    <path id="Path_6880" data-name="Path 6880" class="cls-1" d="M11.933,23.861a17.555,17.555,0,0,1-2.17-.181L9.311,23.5l.09-.633v-.181a2.72,2.72,0,0,0-2.712-2.712,2.6,2.6,0,0,0-1.9.814l-.362.362-.362-.362a11.886,11.886,0,0,1-1.989-2.26l-.271-.271L2.26,17.9l.09-.09a2.622,2.622,0,0,0,0-3.8,2.6,2.6,0,0,0-1.9-.814H0V11.838a17.554,17.554,0,0,1,.181-2.17l.09-.452.633.09h.181A2.72,2.72,0,0,0,3.8,6.6a2.6,2.6,0,0,0-.814-1.9l-.362-.271.362-.362a11.351,11.351,0,0,1,2.17-1.989L5.6,1.8l.362.452.09.09a2.789,2.789,0,0,0,3.8,0,2.6,2.6,0,0,0,.814-1.9V0H11.3a9.968,9.968,0,0,1,2.8.181l.452.09L14.464.9v.181a2.72,2.72,0,0,0,2.712,2.712,2.6,2.6,0,0,0,1.9-.814l.362-.362.362.362a10.906,10.906,0,0,1,1.9,2.17l.271.362-.452.362-.09.09a2.622,2.622,0,0,0,0,3.8,2.6,2.6,0,0,0,1.9.814h.452v1.356a17.554,17.554,0,0,1-.181,2.17l-.09.452-.542-.09H22.78a2.72,2.72,0,0,0-2.712,2.712,2.6,2.6,0,0,0,.814,1.9l.362.362-.362.362a11.886,11.886,0,0,1-2.26,1.989l-.362.271L17.9,21.6l-.09-.09a2.789,2.789,0,0,0-3.8,0,2.6,2.6,0,0,0-.814,1.9v.452h-.633C12.385,23.771,12.113,23.861,11.933,23.861ZM10.4,22.686a6.227,6.227,0,0,0,1.808.09A3.137,3.137,0,0,1,13.288,20.7a3.773,3.773,0,0,1,5.153-.09A15.713,15.713,0,0,0,19.8,19.432a3.956,3.956,0,0,1-.723-2.26,3.705,3.705,0,0,1,3.616-3.706,8.77,8.77,0,0,0,.09-1.537v-.271A3.137,3.137,0,0,1,20.7,10.573a3.62,3.62,0,0,1-1.085-2.622,3.551,3.551,0,0,1,.994-2.531,15.714,15.714,0,0,0-1.175-1.356,4.182,4.182,0,0,1-2.26.723,3.705,3.705,0,0,1-3.706-3.616,6.227,6.227,0,0,0-1.808-.09A3.137,3.137,0,0,1,10.577,3.16a3.773,3.773,0,0,1-5.153.09A5.777,5.777,0,0,0,4.068,4.426a3.956,3.956,0,0,1,.723,2.26,3.705,3.705,0,0,1-3.616,3.706,8.77,8.77,0,0,0-.09,1.537V12.2a3.351,3.351,0,0,1,2.079,1.085,3.685,3.685,0,0,1,.09,5.153,15.714,15.714,0,0,0,1.175,1.356,3.956,3.956,0,0,1,2.26-.723A3.766,3.766,0,0,1,10.4,22.686Z"/>
  </g>
</svg>
