<svg xmlns="http://www.w3.org/2000/svg" viewBox="4816.5 -1365.684 23.58 28.184">
  <defs>
    <style>
      .cls-1 {
        fill: #989898;
        stroke: #989898;
      }
    </style>
  </defs>
  <g id="Group_3360" data-name="Group 3360" transform="translate(4817 -1365.184)">
    <path id="Path_6886" data-name="Path 6886" class="cls-1" d="M22.17,16.019H.409a.409.409,0,1,1,0-.819H22.17a.394.394,0,0,1,.409.409A.415.415,0,0,1,22.17,16.019Z" transform="translate(0 -10.016)"/>
    <path id="Path_6887" data-name="Path 6887" class="cls-1" d="M29.7,6H24.109a.394.394,0,0,1-.409-.409V3.206a3.206,3.206,0,1,1,6.412,0V5.594A.44.44,0,0,1,29.7,6Zm-5.184-.819h4.775V3.206a2.388,2.388,0,0,0-4.775,0Z" transform="translate(-15.616 0)"/>
    <path id="Path_6888" data-name="Path 6888" class="cls-1" d="M19.209,41.771a.394.394,0,0,1-.409-.409V27.309a.409.409,0,0,1,.819,0V41.362A.394.394,0,0,1,19.209,41.771Z" transform="translate(-12.388 -17.725)"/>
    <path id="Path_6889" data-name="Path 6889" class="cls-1" d="M32.309,41.771a.394.394,0,0,1-.409-.409V27.309a.409.409,0,0,1,.819,0V41.362A.415.415,0,0,1,32.309,41.771Z" transform="translate(-21.019 -17.725)"/>
    <path id="Path_6890" data-name="Path 6890" class="cls-1" d="M45.409,41.771A.394.394,0,0,1,45,41.362V27.309a.409.409,0,0,1,.819,0V41.362A.415.415,0,0,1,45.409,41.771Z" transform="translate(-29.651 -17.725)"/>
    <path id="Path_6885" data-name="Path 6885" class="cls-1" d="M24.774,37.2H8.709a.394.394,0,0,1-.409-.409V15.609a.394.394,0,0,1,.409-.409H24.774a.394.394,0,0,1,.409.409V36.791A.415.415,0,0,1,24.774,37.2ZM9.119,36.381H24.365V16.019H9.119Z" transform="translate(-5.469 -10.016)"/>
  </g>
</svg>
