<svg id="_33x33icons" data-name="33x33icons" xmlns="http://www.w3.org/2000/svg" viewBox="0 0 38 38"><defs><style>.cls-1{fill:#008faa;}.cls-2{fill:none;stroke:#006478;}.cls-3{isolation:isolate;}.cls-4{fill:#fff;}</style></defs><title>iconNameCircle</title><g id="Group_3183" data-name="Group 3183"><g id="Ellipse_1877" data-name="Ellipse 1877"><circle class="cls-1" cx="19" cy="19" r="18.7"/><circle class="cls-2" cx="19" cy="19" r="18.2"/></g><g id="M" class="cls-3"><g class="cls-3"><path class="cls-4" d="M6.65,28.06A3.48,3.48,0,0,0,9,27.24a5.31,5.31,0,0,0,.51-2.92V12.55a2.94,2.94,0,0,0-.5-2,3.81,3.81,0,0,0-2.25-.56V9.41h5.72l6.66,14.45,6.5-14.45h5.76v.54a3.45,3.45,0,0,0-2.08.59,3,3,0,0,0-.47,2V25.44a3,3,0,0,0,.47,2,3.75,3.75,0,0,0,2.08.59v.54H23.24v-.54a3.56,3.56,0,0,0,2.19-.63,4,4,0,0,0,.43-2.33v-13L18.43,28.59H18l-7.3-15.83V24.32q0,2.38.69,3.1a3.53,3.53,0,0,0,2,.64v.54H6.65Z"/></g></g></g></svg>