<svg xmlns="http://www.w3.org/2000/svg" xmlns:xlink="http://www.w3.org/1999/xlink" viewBox="0 0 95 85.85"><defs><style>.cls-1{isolation:isolate;}.cls-2{fill:url(#linear-gradient);}.cls-3{fill:url(#linear-gradient-2);}.cls-4{fill:url(#linear-gradient-3);}.cls-5{fill:url(#linear-gradient-4);}.cls-6{fill:url(#linear-gradient-5);}.cls-7{fill:url(#linear-gradient-6);}.cls-8{fill:url(#linear-gradient-7);}.cls-9{fill:url(#linear-gradient-8);}.cls-10{fill:url(#linear-gradient-9);}.cls-11{opacity:0.4;mix-blend-mode:multiply;}.cls-12{fill:#231f20;}</style><linearGradient id="linear-gradient" x1="72.32" y1="61.43" x2="22.95" y2="61.27" gradientUnits="userSpaceOnUse"><stop offset="0" stop-color="#93a447"/><stop offset="1" stop-color="#5a6828"/></linearGradient><linearGradient id="linear-gradient-2" x1="72.28" y1="71.97" x2="22.91" y2="71.81" xlink:href="#linear-gradient"/><linearGradient id="linear-gradient-3" x1="28.93" y1="73.88" x2="29.14" y2="11.68" gradientUnits="userSpaceOnUse"><stop offset="0" stop-color="#008499"/><stop offset="1" stop-color="#00606f"/></linearGradient><linearGradient id="linear-gradient-4" x1="18.36" y1="73.84" x2="18.57" y2="11.64" xlink:href="#linear-gradient-3"/><linearGradient id="linear-gradient-5" x1="22.01" y1="19.88" x2="77.89" y2="26.6" gradientUnits="userSpaceOnUse"><stop offset="0" stop-color="#f9c731"/><stop offset="1" stop-color="#ad8c21"/></linearGradient><linearGradient id="linear-gradient-6" x1="23.19" y1="10.07" x2="79.07" y2="16.8" xlink:href="#linear-gradient-5"/><linearGradient id="linear-gradient-7" x1="80.29" y1="18.42" x2="73.57" y2="74.14" gradientUnits="userSpaceOnUse"><stop offset="0" stop-color="#e16921"/><stop offset="1" stop-color="#9c480e"/></linearGradient><linearGradient id="linear-gradient-8" x1="67.7" y1="16.9" x2="60.98" y2="72.62" xlink:href="#linear-gradient-7"/><linearGradient id="linear-gradient-9" x1="71.24" y1="17.32" x2="64.51" y2="73.04" xlink:href="#linear-gradient-7"/></defs><title>WebSize</title><g class="cls-1"><g id="Layer_1" data-name="Layer 1"><path class="cls-2" d="M47.56,48.74c-13,0-24.54,7.45-31.23,18.7A41.1,41.1,0,0,0,23,73.75C28,64.13,37.1,57.64,47.56,57.64S67.29,64.38,72.24,74a42.39,42.39,0,0,0,6.6-6.52C72.15,56.22,60.64,48.74,47.56,48.74Z"/><path class="cls-3" d="M47.51,63.67c-8.7,0-16.32,5.11-20.56,12.73a40,40,0,0,0,8.12,3.67c2.75-4.53,7.3-7.5,12.44-7.5s9.73,3,12.48,7.57a41.12,41.12,0,0,0,8.14-3.65C63.89,68.82,56.25,63.67,47.51,63.67Z"/><path class="cls-4" d="M22.92,11.52a41.94,41.94,0,0,0-6.31,6.67c9.62,5,16.11,14.1,16.11,24.57S26,62.56,16.37,67.51A41.19,41.19,0,0,0,22.85,74c11.29-6.68,18.77-18.2,18.77-31.27S34.17,18.22,22.92,11.52Z"/><path class="cls-5" d="M26.69,42.7c0-8.7-5.11-16.32-12.73-20.56a40.46,40.46,0,0,0-3.67,8.12c4.52,2.76,7.5,7.31,7.5,12.44s-3,9.73-7.57,12.49a41,41,0,0,0,3.65,8.13C21.53,59.09,26.69,51.45,26.69,42.7Z"/><path class="cls-6" d="M78.84,18.12a41.14,41.14,0,0,0-6.68-6.31c-5,9.61-14.09,16.1-24.56,16.1S27.87,21.17,22.92,11.52a42,42,0,0,0-6.59,6.53C23,29.34,34.52,36.82,47.6,36.82S72.14,29.37,78.84,18.12Z"/><path class="cls-7" d="M47.65,21.89c8.71,0,16.32-5.11,20.57-12.73A40.49,40.49,0,0,0,60.1,5.48C57.34,10,52.79,13,47.65,13s-9.73-3-12.48-7.56A40.75,40.75,0,0,0,27,9.06C31.27,16.73,38.91,21.89,47.65,21.89Z"/><path class="cls-8" d="M77.37,42.85c0-5.17,3-9.73,7.57-12.48a41.12,41.12,0,0,0-3.65-8.14c-7.66,4.24-12.82,11.88-12.82,20.62S73.58,59.17,81.2,63.42a40.29,40.29,0,0,0,3.67-8.13C80.34,52.53,77.37,48,77.37,42.85Z"/><path class="cls-9" d="M62.44,42.8c0-10.49,6.75-19.73,16.4-24.68a42.9,42.9,0,0,0-6.53-6.6C61,18.21,53.54,29.72,53.54,42.8a33.68,33.68,0,0,0,.67,6.61,34.81,34.81,0,0,1,10.62,4.05A25.23,25.23,0,0,1,62.44,42.8Z"/><path class="cls-10" d="M58.24,60a39.29,39.29,0,0,0,14,14,.53.53,0,0,1-.09-.23A30.15,30.15,0,0,0,58.24,60Z"/><g class="cls-11"><path class="cls-12" d="M41,36.14a34.63,34.63,0,0,1-10.62-4c.36.76.67,1.55,1,2.33a34,34,0,0,0,9.95,3.51C41.13,37.34,41.07,36.73,41,36.14Z"/><path class="cls-12" d="M41,49.38a34.63,34.63,0,0,1-4,10.62c.76-.36,1.54-.66,2.34-1a34.6,34.6,0,0,0,3.5-9.94C42.18,49.2,41.57,49.26,41,49.38Z"/><path class="cls-12" d="M64.91,32.08a39.39,39.39,0,0,0,13.93-14A30.9,30.9,0,0,0,64.91,32.08Z"/><path class="cls-12" d="M36.85,25.45a39.39,39.39,0,0,0-14-13.93A30.9,30.9,0,0,0,36.85,25.45Z"/><path class="cls-12" d="M30.25,53.5a39.42,39.42,0,0,0-13.93,14A30.92,30.92,0,0,0,30.25,53.5Z"/><path class="cls-12" d="M58.31,60.12a39.47,39.47,0,0,0,14,13.93A30.85,30.85,0,0,0,58.31,60.12Z"/><path class="cls-12" d="M54.17,36.21a35,35,0,0,1,4-10.62c-.76.35-1.54.66-2.33.94a34.68,34.68,0,0,0-3.51,9.95C53,36.39,53.58,36.32,54.17,36.21Z"/><path class="cls-12" d="M54.22,49.46a34.69,34.69,0,0,1,10.62,4c-.35-.76-.66-1.54-.94-2.33A34.58,34.58,0,0,0,54,47.66C54,48.26,54.11,48.87,54.22,49.46Z"/></g></g></g></svg>