<svg xmlns="http://www.w3.org/2000/svg" viewBox="1799.458 -1056 22.542 14.69">
  <defs>
    <style>
      .cls-1 {
        fill: none;
      }

      .cls-2 {
        fill: #989898;
      }
    </style>
  </defs>
  <g id="iconTag-1" transform="translate(1823.5 -1034.57) rotate(180)">
    <g id="Union_104" data-name="Union 104" transform="translate(1.5 6.74)">
      <path id="Path_7222" data-name="Path 7222" class="cls-1" d="M11.606,21.415H7.939S1.477,15.486,1.5,14.209,8.082,6.74,8.082,6.74H21.968a2.074,2.074,0,0,1,2.074,2.074V19.333a2.074,2.074,0,0,1-2.074,2.074Z" transform="translate(-1.5 -6.74)"/>
      <path id="Path_7223" data-name="Path 7223" class="cls-2" d="M21.968,19.336h0V8.816H8.916c-.541.526-1.39,1.353-2.254,2.254a35.353,35.353,0,0,0-2.833,3.141,32.6,32.6,0,0,0,2.72,3.006c.849.857,1.676,1.646,2.209,2.141H21.968m0,2.074H7.939S1.477,15.5,1.5,14.226,8.082,6.75,8.082,6.75H21.968a2.074,2.074,0,0,1,2.074,2.066V19.336a2.074,2.074,0,0,1-2.074,2.081Z" transform="translate(-1.5 -6.742)"/>
    </g>
  </g>
</svg>
