<svg xmlns="http://www.w3.org/2000/svg" viewBox="1787.971 -1417.505 37.573 13.755">
  <defs>
    <style>
      .cls-1 {
        fill: #989898;
        stroke: #989898;
        stroke-width: 0.5px;
      }
    </style>
  </defs>
  <g id="Sunglasses_1_" transform="translate(1781 -1965)">
    <path id="Path_7168" data-name="Path 7168" class="cls-1" d="M62.234,29.84a38.334,38.334,0,0,0-4.447-.24H57.5a4.245,4.245,0,0,0-2.543.737,2.917,2.917,0,0,0-1.149,2.316c-.1,2.377.375,4.072,1.431,5.178a5.624,5.624,0,0,0,4.287,1.48h.031a5.867,5.867,0,0,0,5.848-3.7,8.57,8.57,0,0,0,.891-2.727C66.515,30.749,64.906,30.134,62.234,29.84Zm3.507,2.985a8.049,8.049,0,0,1-.842,2.543,5.311,5.311,0,0,1-5.35,3.391h-.025a5.145,5.145,0,0,1-3.888-1.314c-.952-.989-1.37-2.555-1.278-4.773.092-2.26,2.23-2.518,3.145-2.518h.289a38.748,38.748,0,0,1,4.386.233C65.035,30.706,65.9,31.3,65.741,32.825Z" transform="translate(-43.266 520)"/>
    <path id="Path_7169" data-name="Path 7169" class="cls-1" d="M346.091,32.88a8.57,8.57,0,0,0,.891,2.727,5.867,5.867,0,0,0,5.848,3.7h.031a5.671,5.671,0,0,0,4.287-1.48c1.056-1.106,1.529-2.8,1.431-5.178a2.917,2.917,0,0,0-1.149-2.316,4.245,4.245,0,0,0-2.543-.737H354.6a38.409,38.409,0,0,0-4.447.24C347.479,30.134,345.87,30.749,346.091,32.88Zm8.5-2.727h.289c.915.006,3.053.258,3.145,2.518.086,2.224-.332,3.784-1.278,4.773a5.145,5.145,0,0,1-3.888,1.314h-.025a5.311,5.311,0,0,1-5.35-3.391,8.26,8.26,0,0,1-.842-2.543c-.16-1.523.706-2.119,3.569-2.439A38.561,38.561,0,0,1,354.592,30.153Z" transform="translate(-317.591 520)"/>
    <path id="Path_7170" data-name="Path 7170" class="cls-1" d="M36.844.8A39.181,39.181,0,0,0,25.308.285c-1.941.283-3.36.577-4.5.811a19.2,19.2,0,0,1-2.285.393A22.118,22.118,0,0,1,16.236,1.1c-1.142-.233-2.561-.528-4.5-.811A39.13,39.13,0,0,0,.2.8a.277.277,0,0,0-.221.3L.211,3.2a.281.281,0,0,0,.221.24c.043.006,1.081.233,1.02,1.026C1.378,5.5,1.3,9.038,3.386,11.3a6.551,6.551,0,0,0,5,1.953h.2c4.865,0,6.843-.964,8.833-6.357.025-.061.049-.129.068-.19a4.264,4.264,0,0,1,1.026-1.873A4.3,4.3,0,0,1,19.541,6.7c.025.061.049.129.068.19,1.984,5.393,3.968,6.357,8.833,6.357h.2a6.551,6.551,0,0,0,5-1.953c2.088-2.254,2.009-5.8,1.935-6.83-.055-.8.977-1.02,1.02-1.026a.281.281,0,0,0,.221-.24L37.047,1.1A.254.254,0,0,0,36.844.8ZM36.3,2.951a1.6,1.6,0,0,0-1.265,1.56c.068.977.147,4.318-1.794,6.413a6.039,6.039,0,0,1-4.6,1.775c-2.3.012-3.986-.154-5.3-1-1.265-.823-2.23-2.316-3.212-4.994-.025-.061-.043-.123-.068-.19A5.761,5.761,0,0,0,19.086,4.6c-.031-.037-.3-.405-.571-.418-.246.012-.534.375-.571.418a5.821,5.821,0,0,0-.977,1.916c-.025.061-.049.129-.068.19-.989,2.678-1.947,4.171-3.212,4.994-1.308.848-3,1.013-5.3,1a6.039,6.039,0,0,1-4.6-1.775C1.857,8.829,1.937,5.488,2,4.511A1.594,1.594,0,0,0,.739,2.951L.561,1.286A38.173,38.173,0,0,1,11.66.826c1.923.283,3.335.571,4.472.8a21.275,21.275,0,0,0,2.346.405.2.2,0,0,0,.1,0,21.275,21.275,0,0,0,2.346-.405c1.136-.233,2.543-.522,4.472-.8a37.887,37.887,0,0,1,11.093.461Z" transform="translate(7.24 547.748)"/>
  </g>
</svg>
