<svg xmlns="http://www.w3.org/2000/svg" viewBox="1793.75 -1528.25 25.06 32.3">
  <defs>
    <style>
      .cls-1 {
        fill: #989898;
        stroke: #989898;
        stroke-width: 0.5px;
      }
    </style>
  </defs>
  <g id="Compass_2_" transform="translate(1781 -1963)">
    <path id="Path_7174" data-name="Path 7174" class="cls-1" d="M13.938,7.344a3.863,3.863,0,1,0-3.309,0,12.276,12.276,0,1,0,3.309,0Zm-4.8-3.485A3.142,3.142,0,1,1,13.627,6.7V5.175a.6.6,0,0,0-.008-.12,2.042,2.042,0,0,0,.159-.207,1.754,1.754,0,1,0-3.213-.973,1.688,1.688,0,0,0,.287.957c.008.008.072.1.1.152a1.3,1.3,0,0,0-.016.175V6.7A3.148,3.148,0,0,1,9.138,3.859Zm3.293.12h-.3a1.238,1.238,0,0,0-.781.287,1.051,1.051,0,0,1-.072-.383,1.037,1.037,0,0,1,2.073,0,1,1,0,0,1-.1.431A1.136,1.136,0,0,0,12.431,3.979Zm.478,1.2V6.937a3.142,3.142,0,0,1-1.26,0V5.175a.48.48,0,0,1,.478-.478h.3A.475.475,0,0,1,12.91,5.175Zm-.63,25.907A11.562,11.562,0,1,1,23.842,19.52,11.576,11.576,0,0,1,12.28,31.082Z" transform="translate(13 435)"/>
    <path id="Path_7175" data-name="Path 7175" class="cls-1" d="M35.286,115.8a10.286,10.286,0,1,0,10.286,10.286A10.3,10.3,0,0,0,35.286,115.8Zm0,19.855a9.569,9.569,0,1,1,9.569-9.569A9.576,9.576,0,0,1,35.286,135.655Z" transform="translate(-10.007 328.434)"/>
    <path id="Path_7176" data-name="Path 7176" class="cls-1" d="M69.3,157.192l3.652-5.167a.353.353,0,0,0-.04-.462.363.363,0,0,0-.462-.04l-5.151,3.66V150h-.718v5.693l-.574.407-4.146-4.146-.5.518,4.146,4.146-.407.574H59.4v.718h5.191l-3.652,5.167a.353.353,0,0,0,.04.462.349.349,0,0,0,.255.1.4.4,0,0,0,.207-.064l5.151-3.66V165.1h.718v-5.693l.574-.407,4.146,4.146.51-.51-4.146-4.146.407-.574h5.693V157.2H69.3Zm-6.563,4.577,2.679-3.788a1.593,1.593,0,0,0,1.1,1.1Zm4.2-3.349a.861.861,0,1,1,.861-.861A.853.853,0,0,1,66.943,158.42Zm1.523-1.292a1.6,1.6,0,0,0-1.108-1.1l3.788-2.7Z" transform="translate(-41.663 296.961)"/>
  </g>
</svg>
