<svg xmlns="http://www.w3.org/2000/svg" viewBox="1789.741 -1576 34.962 28.028">
  <defs>
    <style>
      .cls-1 {
        fill: #989898;
      }
    </style>
  </defs>
  <g id="Group_3359" data-name="Group 3359" transform="translate(1789.741 -1576)">
    <g id="Symbol_80_6" data-name="Symbol 80 – 6">
      <path id="Path_7177" data-name="Path 7177" class="cls-1" d="M31.67,52a.767.767,0,0,0-.77.77V54.7a.767.767,0,0,0,.77.77h6.975a.767.767,0,0,0,.77-.77V52.77a.77.77,0,0,0-1.54,0v1.2H32.44v-1.2A.767.767,0,0,0,31.67,52Z" transform="translate(-17.678 -29.749)"/>
      <path id="Path_7178" data-name="Path 7178" class="cls-1" d="M37.78,61.9H25.37a.77.77,0,0,0,0,1.54H37.822a.767.767,0,0,0,.77-.77A.8.8,0,0,0,37.78,61.9Z" transform="translate(-14.073 -35.412)"/>
      <path id="Path_7179" data-name="Path 7179" class="cls-1" d="M32.607,0H2.4A2.392,2.392,0,0,0,0,2.4V18.871a2.392,2.392,0,0,0,2.4,2.4H32.564a2.392,2.392,0,0,0,2.4-2.4V2.4A2.33,2.33,0,0,0,32.607,0Zm.9,18.871a.9.9,0,0,1-.9.9H2.4a.9.9,0,0,1-.9-.9v-5.52L4.022,12.2,6.5,13.65A1.519,1.519,0,0,0,8,14.934a1.549,1.549,0,0,0,1.5-1.241l3.338-1.968,4.621,2.567a1.505,1.505,0,0,0,2.953-.257L30.981,5.306a1.185,1.185,0,0,0,.385.043,1.516,1.516,0,0,0,1.5-1.5,1.593,1.593,0,0,0-1.583-1.5,1.516,1.516,0,0,0-1.5,1.5c0,.128.043.3.043.428L19.684,12.623a1.446,1.446,0,0,0-.856-.257,1.6,1.6,0,0,0-1.07.428l-4.664-2.567a.735.735,0,0,0-.727,0L8.943,12.281a1.526,1.526,0,0,0-.984-.342,1.5,1.5,0,0,0-.941.342l-2.61-1.54a.774.774,0,0,0-.685-.043L1.5,11.725V2.4a.9.9,0,0,1,.9-.9H32.564a.9.9,0,0,1,.9.9V18.871Z"/>
    </g>
  </g>
</svg>
