<svg xmlns="http://www.w3.org/2000/svg" viewBox="4818 -1885 18 18">
  <defs>
    <style>
      .cls-1, .cls-4 {
        fill: none;
      }

      .cls-1 {
        stroke: #989898;
        stroke-width: 2px;
      }

      .cls-2, .cls-5 {
        fill: #989898;
      }

      .cls-3, .cls-5 {
        stroke: none;
      }
    </style>
  </defs>
  <g id="Group_3418" data-name="Group 3418" transform="translate(4802 -2016)">
    <g id="Ellipse_1917" data-name="Ellipse 1917" class="cls-1" transform="translate(16 131)">
      <circle class="cls-3" cx="9" cy="9" r="9"/>
      <circle class="cls-4" cx="9" cy="9" r="8"/>
    </g>
    <g id="Path_7004" data-name="Path 7004" class="cls-2" transform="translate(23.194 138.194)">
      <path class="cls-3" d="M 5.306156158447266 5.306156158447266 L 1.207096219062805 5.306156158447266 L 5.306156158447266 1.207096219062805 L 5.306156158447266 5.306156158447266 Z"/>
      <path class="cls-5" d="M 4.806156158447266 4.806156158447266 L 4.806156158447266 2.414216279983521 L 2.414216279983521 4.806156158447266 L 4.806156158447266 4.806156158447266 M 5.806156158447266 5.806156158447266 L -3.828125045401976e-06 5.806156158447266 L 5.806156158447266 -3.828125045401976e-06 L 5.806156158447266 5.806156158447266 Z"/>
    </g>
    <g id="Path_7005" data-name="Path 7005" class="cls-2" transform="translate(27 142) rotate(180)">
      <path class="cls-3" d="M 5.306156158447266 5.306156158447266 L 1.207096219062805 5.306156158447266 L 5.306156158447266 1.207096219062805 L 5.306156158447266 5.306156158447266 Z"/>
      <path class="cls-5" d="M 4.806156158447266 4.806156158447266 L 4.806156158447266 2.414216279983521 L 2.414216279983521 4.806156158447266 L 4.806156158447266 4.806156158447266 M 5.806156158447266 5.806156158447266 L -3.828125045401976e-06 5.806156158447266 L 5.806156158447266 -3.828125045401976e-06 L 5.806156158447266 5.806156158447266 Z"/>
    </g>
  </g>
</svg>
