<svg xmlns="http://www.w3.org/2000/svg" viewBox="4816.5 -1413 24 24.554">
  <defs>
    <style>
      .cls-1 {
        fill: #989898;
        stroke: #989898;
      }

      .cls-2 {
        fill: #df5827;
        stroke: #fafafa;
        stroke-width: 1.5px;
      }

      .cls-3 {
        stroke: none;
      }

      .cls-4 {
        fill: none;
      }
    </style>
  </defs>
  <g id="Group_3362" data-name="Group 3362" transform="translate(4842 -1421.818)">
    <path id="Path_6897" data-name="Path 6897" class="cls-1" d="M22.583,23.483H.417A.422.422,0,0,1,0,23.066c0-4.03,3.37-5.837,4.378-6.288V12.122a7.122,7.122,0,0,1,14.245,0v4.621C19.63,17.195,23,19.036,23,23.032A.431.431,0,0,1,22.583,23.483ZM.834,22.649h21.3c-.243-3.787-3.926-5.142-4.1-5.211a.406.406,0,0,1-.278-.382V12.122a6.289,6.289,0,0,0-12.577,0v4.9A.377.377,0,0,1,4.9,17.4C4.795,17.473,1.112,18.862.834,22.649Z" transform="translate(-25 5.254)"/>
    <path id="Path_6898" data-name="Path 6898" class="cls-1" d="M26.831,63.248A3.247,3.247,0,0,1,23.6,60.017a.417.417,0,0,1,.834,0,2.4,2.4,0,0,0,4.795,0,.417.417,0,0,1,.834,0A3.247,3.247,0,0,1,26.831,63.248Z" transform="translate(-40.401 -30.376)"/>
    <g id="Ellipse_1959" data-name="Ellipse 1959" class="cls-2" transform="translate(-11 8.818)">
      <circle class="cls-3" cx="4.5" cy="4.5" r="4.5"/>
      <circle class="cls-4" cx="4.5" cy="4.5" r="3.75"/>
    </g>
  </g>
</svg>
