<svg xmlns="http://www.w3.org/2000/svg" viewBox="1796 -1376 22.987 28.526">
  <defs>
    <style>
      .cls-1 {
        fill: #989898;
      }
    </style>
  </defs>
  <g id="Symbol_113" data-name="Symbol 113" transform="translate(1782 -1963)">
    <path id="Path_7166" data-name="Path 7166" class="cls-1" d="M16.319,19.938a3.259,3.259,0,0,0-1.058.151,5.909,5.909,0,0,0-1.624.869,2.6,2.6,0,0,1-1.549.68,1.839,1.839,0,0,1-.453-.038,2.82,2.82,0,0,1-1.473-.68,4.813,4.813,0,0,0-1.549-.831,3.509,3.509,0,0,0-1.1-.189,5.922,5.922,0,0,0-4.192,2.153A11.814,11.814,0,0,0,.267,30.664a10.573,10.573,0,0,0,9.669,10.2h.151a1.582,1.582,0,0,0,1.209-.529.662.662,0,0,1,.6-.264.839.839,0,0,1,.755.3,1.377,1.377,0,0,0,1.02.491h.038a8.875,8.875,0,0,0,6.27-2.871,11.342,11.342,0,0,0,3.248-8.2C23.043,24.659,19.794,19.938,16.319,19.938ZM13.6,39.5h0c-.038,0-.038-.038-.113-.076a2.1,2.1,0,0,0-1.7-.68,1.858,1.858,0,0,0-1.549.642c-.189.189-.189.151-.3.151a9.143,9.143,0,0,1-8.385-8.951A10.608,10.608,0,0,1,4.233,23a4.743,4.743,0,0,1,3.21-1.737,1.975,1.975,0,0,1,.68.113,3.193,3.193,0,0,1,1.133.642,4.45,4.45,0,0,0,2.04.944,5.161,5.161,0,0,0,.718.076,3.893,3.893,0,0,0,2.342-.906,5.737,5.737,0,0,1,1.246-.68c2.531-.793,6.005,3.173,6.119,8.46a9.858,9.858,0,0,1-2.871,7.176A7.554,7.554,0,0,1,13.6,39.5Z" transform="translate(13.753 574.664)"/>
    <path id="Path_7167" data-name="Path 7167" class="cls-1" d="M29.748,7.589a1.663,1.663,0,0,0,.6.076A4.618,4.618,0,0,0,33.94,4.983c1.058-1.926,1.1-4,.038-4.948a.637.637,0,0,0-.529-.151.752.752,0,0,0-.453.3L29.37,6.645a.65.65,0,0,0-.038.529C29.445,7.4,29.559,7.551,29.748,7.589Z" transform="translate(-4.321 587.126)"/>
  </g>
</svg>
