<svg id="_33x33icons" data-name="33x33icons" xmlns="http://www.w3.org/2000/svg" viewBox="0 0 33 33"><defs><style>.cls-1{fill:none;}.cls-2{fill:#fff;}</style></defs><title>iconColor-2</title><g id="Path_6857" data-name="Path 6857"><path class="cls-1" d="M16.5,3.31S26.13,14.65,26.13,20a9.63,9.63,0,0,1-19.25.2q0-.1,0-.2C6.87,14.65,16.5,3.31,16.5,3.31Z"/><path class="cls-2" d="M16.5,26.59A6.63,6.63,0,0,0,23.13,20c0-.56-.31-2.83-4.26-8.59C18,10.19,17.22,9.07,16.5,8.12c-.72.95-1.55,2.07-2.37,3.26-4,5.76-4.26,8-4.26,8.59a6.63,6.63,0,0,0,6.63,6.63m0,3A9.63,9.63,0,0,1,6.87,20c0-5.32,9.63-16.66,9.63-16.66S26.13,14.65,26.13,20A9.63,9.63,0,0,1,16.5,29.59Z"/></g></svg>