<svg xmlns="http://www.w3.org/2000/svg" viewBox="0 0 35 35"><defs><style>.cls-1{fill:#edeced;}.cls-2{fill:#5a5a5a;stroke:#5a5a5a;stroke-miterlimit:10;}</style></defs><title>socialLink</title><g id="_35x35_social_34x34_circles_" data-name="35x35 social (34x34 circles)"><circle class="cls-1" cx="17.5" cy="17.5" r="17"/><path class="cls-2" d="M12.15,21.86a.32.32,0,0,1-.25-.12.33.33,0,0,1,0-.46l9.56-8a.32.32,0,0,1,.45,0,.33.33,0,0,1,0,.46l-9.56,8A.32.32,0,0,1,12.15,21.86Z"/><path class="cls-2" d="M9,28.3H9a.32.32,0,0,1-.22-.12l-3.7-4.55a.33.33,0,0,1,0-.46L13.67,16a.31.31,0,0,1,.23-.07.32.32,0,0,1,.22.12L15,17.14a.33.33,0,0,1,0,.46.32.32,0,0,1-.45,0l-.68-.83L5.77,23.47l3.29,4,8.06-6.75-.69-.85a.33.33,0,0,1,0-.46.32.32,0,0,1,.45,0l.89,1.1a.33.33,0,0,1,0,.46L9.22,28.23A.32.32,0,0,1,9,28.3Z"/><path class="cls-2" d="M19.69,19.36a.32.32,0,0,1-.25-.12l-.88-1.08a.33.33,0,0,1,0-.46.32.32,0,0,1,.45,0l.68.83,8.06-6.75-3.29-4-8.06,6.75.69.85a.33.33,0,0,1,0,.46.32.32,0,0,1-.45,0l-.89-1.1a.33.33,0,0,1-.07-.24.33.33,0,0,1,.11-.22l8.55-7.17a.32.32,0,0,1,.45,0l3.7,4.55a.33.33,0,0,1,0,.46l-8.55,7.17A.32.32,0,0,1,19.69,19.36Z"/></g></svg>