<?xml version="1.0" encoding="utf-8"?>
<!-- Generator: Adobe Illustrator 21.1.0, SVG Export Plug-In . SVG Version: 6.00 Build 0)  -->
<svg version="1.1" id="Layer_1" xmlns="http://www.w3.org/2000/svg" xmlns:xlink="http://www.w3.org/1999/xlink" x="0px" y="0px"
	 viewBox="0 0 35 35" style="enable-background:new 0 0 35 35;" xml:space="preserve">
<style type="text/css">
	.st0{fill:#6ACEF5;}
	.st1{fill:#FFFFFF;}
</style>
<title>socialTwitter</title>
<g id="_35x35_social_34x34_circles_">
	<circle class="st0" cx="17.5" cy="17.5" r="17"/>
	<path class="st1" d="M27.8,11.1L27.8,11.1C27.8,11.1,27.8,11.1,27.8,11.1c-0.6,0.8-1.3,1.5-2,2.1c-0.1,0-0.1,0.1-0.1,0.2
		c0,0.7,0,1.3-0.1,2c-0.2,1.3-0.6,2.6-1.1,3.8c-0.7,1.5-1.8,2.9-3.1,4c-1.2,1-2.7,1.8-4.2,2.2c-1.3,0.4-2.7,0.5-4,0.5
		c-0.6,0-1.1-0.1-1.7-0.2c-1.3-0.2-2.6-0.7-3.8-1.4L7.2,24l0,0c2.2,0.3,4.5-0.4,6.2-1.8H13l-0.4,0c-1.5-0.3-2.7-1.4-3.2-2.8
		c0-0.1,0-0.1,0.1-0.1c0.6,0.1,1.1,0.1,1.7-0.1c0,0,0,0,0.1,0h-0.1C10.4,19,9.6,18.5,9,17.8c-0.6-0.7-1-1.7-1-2.6
		C8,15,8,15,8.1,15.1c0.5,0.2,1,0.4,1.5,0.4h0.2l0,0c-0.2-0.2-0.4-0.4-0.6-0.6c-0.3-0.3-0.5-0.6-0.7-0.9C8.1,13.3,8,12.6,8,11.8
		c0-0.7,0.2-1.3,0.5-1.9c0-0.1,0.1-0.1,0.1,0c0.5,0.6,1,1.2,1.6,1.6c1.2,1,2.7,1.8,4.2,2.2c0.9,0.3,1.8,0.4,2.7,0.5
		c0.1,0,0.1,0,0.1-0.1c-0.1-0.5-0.1-1.1,0-1.6c0.3-1.7,1.7-3.1,3.4-3.4l0.4-0.1h0.6c0.1,0,0.1,0,0.2,0c1,0.1,1.9,0.5,2.6,1.2
		c0,0,0.1,0.1,0.2,0.1c0.9-0.2,1.7-0.5,2.5-1c0,0,0.1,0,0.1,0c-0.3,1-1,1.8-1.8,2.3c0.6-0.1,1.2-0.2,1.7-0.4L27.8,11.1z"/>
</g>
</svg>
