<?xml version="1.0" encoding="utf-8"?>
<!-- Generator: Adobe Illustrator 21.1.0, SVG Export Plug-In . SVG Version: 6.00 Build 0)  -->
<svg version="1.1" id="Layer_1" xmlns="http://www.w3.org/2000/svg" xmlns:xlink="http://www.w3.org/1999/xlink" x="0px" y="0px"
	 viewBox="0 0 35 35" style="enable-background:new 0 0 35 35;" xml:space="preserve">
<style type="text/css">
	.st0{fill:#4D6BB2;}
	.st1{fill:#FFFFFF;}
</style>
<title>socialFB</title>
<g id="_35x35_social_34x34_circles_">
	<circle class="st0" cx="17.5" cy="17.5" r="17"/>
	<path class="st1" d="M27.3,16.1c-0.1,1.3-0.2,2.6-0.4,4c0,0.3-0.2,0.4-0.5,0.4c-1,0-2.1,0-3.1,0c-0.3,0-0.4,0.1-0.4,0.4
		c0,2.2,0,4.4,0,6.6v6.2c-1.7,0.6-3.5,0.9-5.4,0.9l0,0c-0.3,0-0.4-0.1-0.4-0.5V21c0-0.6,0-0.6-0.5-0.6s-1.3,0-2,0
		c-0.3,0-0.4-0.1-0.4-0.4c0-1.4,0-2.7,0-4.1c0-0.3,0.1-0.4,0.4-0.4c0.7,0,1.5,0,2.2,0c0.3,0,0.4-0.1,0.4-0.4c0-1.2,0-2.3,0-3.5
		c-0.1-1.3,0.4-2.6,1.2-3.6c0.7-0.8,1.7-1.3,2.8-1.5c0.7-0.1,1.4-0.2,2.1-0.2h3.5c0.3,0,0.4,0.1,0.4,0.4c0,1.4,0,2.8,0,4.1
		c0,0.3-0.1,0.4-0.4,0.4c-0.9,0-1.8,0-2.6,0S23,11.8,23,12.7s0,1.7,0,2.5c0,0.3,0.1,0.4,0.4,0.4c1.2,0,2.4,0,3.5,0
		C27.3,15.6,27.3,15.7,27.3,16.1z"/>
</g>
</svg>
