<svg xmlns="http://www.w3.org/2000/svg" viewBox="0 0 21.771 19.61">
  <defs>
    <style>
      .cls-1 {
        fill: none;
      }

      .cls-2, .cls-3 {
        stroke: none;
      }

      .cls-3 {
        fill: #008faa;
      }
    </style>
  </defs>
  <g id="Path_9709" data-name="Path 9709" class="cls-1" transform="translate(1.499 13.82) rotate(-40)">
    <path class="cls-2" d="M3.212,0H18.888A2.5,2.5,0,0,1,21.5,2.366V3.549a2.5,2.5,0,0,1-2.613,2.366H3.212c-1.443,0-5.169-2.894-5.169-2.894S1.769,0,3.212,0Z"/>
    <path class="cls-3" d="M 3.234142303466797 1.499998569488525 C 3.153005599975586 1.513612270355225 2.537172317504883 1.649296760559082 0.8424358367919922 2.810868501663208 C 0.7526741027832031 2.872390508651733 0.6642513275146484 2.933822631835938 0.5775547027587891 2.994753360748291 C 0.6549758911132812 3.04675030708313 0.7337512969970703 3.099112510681152 0.8136749267578125 3.151608467102051 C 2.543537139892578 4.287820816040039 3.156404495239258 4.405081748962402 3.229015350341797 4.415518283843994 L 18.88806533813477 4.415518283843994 C 19.49119567871094 4.415518283843994 20.00073623657227 4.018838405609131 20.00073623657227 3.54930853843689 L 20.00073623657227 2.36620831489563 C 20.00073623657227 1.896678447723389 19.49119567871094 1.499998569488525 18.88806533813477 1.499998569488525 L 3.234142303466797 1.499998569488525 M 3.212026596069336 -1.430511474609375e-06 L 18.88806533813477 -1.430511474609375e-06 C 20.33099555969238 -1.430511474609375e-06 21.50073623657227 1.059388637542725 21.50073623657227 2.36620831489563 L 21.50073623657227 3.54930853843689 C 21.50073623657227 4.856128692626953 20.33099555969238 5.915518283843994 18.88806533813477 5.915518283843994 L 3.212026596069336 5.915518283843994 C 1.769096374511719 5.915518283843994 -1.956544876098633 3.021308422088623 -1.956544876098633 3.021308422088623 C -1.956544876098633 3.021308422088623 1.769096374511719 -1.430511474609375e-06 3.212026596069336 -1.430511474609375e-06 Z"/>
  </g>
</svg>
