<svg xmlns="http://www.w3.org/2000/svg" viewBox="7262.167 -1771.822 21.772 19.61">
  <defs>
    <style>
      .cls-1 {
        fill: none;
      }

      .cls-2, .cls-3 {
        stroke: none;
      }

      .cls-3 {
        fill: #989898;
      }
    </style>
  </defs>
  <g id="Path_9709" data-name="Path 9709" class="cls-1" transform="translate(7263.666 -1758.002) rotate(-40)">
    <path class="cls-2" d="M3.212,0H18.888A2.5,2.5,0,0,1,21.5,2.366V3.549a2.5,2.5,0,0,1-2.613,2.366H3.212c-1.443,0-5.169-2.894-5.169-2.894S1.769,0,3.212,0Z"/>
    <path class="cls-3" d="M 18.88806533813477 4.415518283843994 C 19.49119567871094 4.415518283843994 20.00073623657227 4.018838405609131 20.00073623657227 3.54930853843689 L 20.00073623657227 2.36620831489563 C 20.00073623657227 1.896678447723389 19.49119567871094 1.499998450279236 18.88806533813477 1.499998450279236 L 3.234152317047119 1.499998450279236 C 3.153014183044434 1.513612270355225 2.537172317504883 1.649296522140503 0.8424356579780579 2.810868501663208 C 0.75267493724823 2.872390508651733 0.664264440536499 2.933814764022827 0.5775691866874695 2.994745492935181 C 0.6601024270057678 3.0501868724823 0.7441936135292053 3.106052875518799 0.8294256925582886 3.161948442459106 C 2.547296047210693 4.288518905639648 3.156641244888306 4.405108451843262 3.229029178619385 4.415518283843994 L 18.88806533813477 4.415518283843994 M 18.88806533813477 5.915518283843994 L 3.212035655975342 5.915518283843994 C 1.769095659255981 5.915518283843994 -1.956544280052185 3.021308422088623 -1.956544280052185 3.021308422088623 C -1.956544280052185 3.021308422088623 1.769095659255981 -1.573333747728611e-06 3.212035655975342 -1.573333747728611e-06 L 18.88806533813477 -1.573333747728611e-06 C 20.33100509643555 -1.573333747728611e-06 21.50073623657227 1.059388399124146 21.50073623657227 2.36620831489563 L 21.50073623657227 3.54930853843689 C 21.50073623657227 4.856128215789795 20.33100509643555 5.915518283843994 18.88806533813477 5.915518283843994 Z"/>
  </g>
</svg>
