<svg xmlns="http://www.w3.org/2000/svg" viewBox="0 0 16.131 22">
  <defs>
    <style>
      .cls-1 {
        opacity: 0.495;
      }

      .cls-2, .cls-3 {
        fill: #fff;
      }

      .cls-3 {
        stroke: #707070;
        stroke-width: 1.5px;
      }

      .cls-4, .cls-5 {
        stroke: none;
      }

      .cls-5 {
        fill: #707070;
      }

      .cls-6 {
        fill: none;
      }
    </style>
  </defs>
  <g id="Group_3256" data-name="Group 3256" class="cls-1" transform="translate(-213 -192)">
    <g id="Path_7246" data-name="Path 7246" class="cls-2" transform="translate(213 192)">
      <path class="cls-4" d="M 8.065609931945801 20.82277870178223 C 5.590700149536133 17.77257919311523 0.7500012516975403 11.15852642059326 0.7500012516975403 8.018369674682617 C 0.7500012516975403 4.010580062866211 4.031741142272949 0.75 8.06554126739502 0.75 C 12.09934139251709 0.75 15.38108158111572 4.010580062866211 15.38108158111572 8.018369674682617 C 15.38108158111572 11.16040706634521 10.54050827026367 17.77330017089844 8.065609931945801 20.82277870178223 Z"/>
      <path class="cls-5" d="M 8.06554126739502 1.5 C 4.445291519165039 1.5 1.500000953674316 4.424129486083984 1.500000953674316 8.018369674682617 C 1.500000953674316 8.709400177001953 1.866031646728516 10.851149559021 5.256481170654297 15.80200958251953 C 6.279826164245605 17.29634475708008 7.312299728393555 18.65551948547363 8.065662384033203 19.61361312866211 C 8.814903259277344 18.66080665588379 9.84063720703125 17.310546875 10.86104106903076 15.82180023193359 C 14.26372146606445 10.85737991333008 14.63108158111572 8.710829734802246 14.63108158111572 8.018369674682617 C 14.63108158111572 4.424129486083984 11.685791015625 1.5 8.06554126739502 1.5 M 8.06554126739502 0 C 12.52001094818115 0 16.13108062744141 3.589950561523438 16.13108062744141 8.018369674682617 C 16.13108062744141 12.44678974151611 8.06554126739502 22 8.06554126739502 22 C 8.06554126739502 22 1.9073486328125e-06 12.44678974151611 1.9073486328125e-06 8.018369674682617 C 1.9073486328125e-06 3.589950561523438 3.611061096191406 0 8.06554126739502 0 Z"/>
    </g>
    <g id="Ellipse_1961" data-name="Ellipse 1961" class="cls-3" transform="translate(216.107 195.088)">
      <ellipse class="cls-4" cx="4.971" cy="4.941" rx="4.971" ry="4.941"/>
      <ellipse class="cls-6" cx="4.971" cy="4.941" rx="4.221" ry="4.191"/>
    </g>
  </g>
</svg>
