<?xml version="1.0" encoding="utf-8"?>
<!-- Generator: Adobe Illustrator 21.1.0, SVG Export Plug-In . SVG Version: 6.00 Build 0)  -->
<svg version="1.1" id="_33x33icons" xmlns="http://www.w3.org/2000/svg" xmlns:xlink="http://www.w3.org/1999/xlink" x="0px"
	 y="0px" viewBox="0 0 33 33" style="enable-background:new 0 0 33 33;" xml:space="preserve">
<style type="text/css">
	.st0{fill:none;}
	.st1{fill:#FFFFFF;}
</style>
<title>iconTag-2</title>
<g id="Group_2552">
	<g id="Union_104">
		<path class="st0" d="M18,6.8h4.9c0,0,8.6,7.9,8.6,9.6s-8.8,9.9-8.8,9.9H4.3c-1.5,0-2.8-1.2-2.8-2.8v-14c0-1.5,1.2-2.8,2.8-2.8l0,0
			L18,6.8z"/>
		<path class="st1" d="M4.3,9.5L4.3,9.5v14h17.4c0.7-0.7,1.9-1.8,3-3c1.3-1.3,2.6-2.7,3.8-4.2c-1.1-1.4-2.3-2.7-3.6-4
			c-1.1-1.1-2.2-2.2-2.9-2.9L4.3,9.5 M4.3,6.7h18.7c0,0,8.6,7.9,8.6,9.6s-8.8,9.9-8.8,9.9H4.3c-1.5,0-2.8-1.2-2.8-2.7v-14
			C1.5,8,2.7,6.8,4.3,6.7C4.3,6.8,4.3,6.8,4.3,6.7L4.3,6.7z"/>
	</g>
	<g>
		<path class="st1" d="M11.1,19.1c-0.3,0.3-0.6,0.5-1,0.6c-0.4,0-0.7-0.4-0.7-0.8c0-0.5,0.3-0.8,1.1-1L13,17c-0.1-0.2-0.1-0.3,0-0.5
			l-2.3-0.8c-0.4-0.1-1.3-0.5-1.3-1.1c0-0.4,0.3-0.8,0.8-0.8c0.5,0.1,1,0.4,1.3,0.8l1.7,1.7c0.1-0.1,0.3-0.2,0.5-0.2l-0.5-2.4
			c-0.1-0.4-0.1-0.7-0.1-1.1c0-0.4,0.3-0.8,0.7-0.8c0,0,0,0,0,0c0.4,0,0.8,0.3,0.8,0.7c0,0,0,0.1,0,0.1c0,0.4-0.1,0.8-0.2,1.1
			l-0.5,2.4c0.2,0,0.3,0.1,0.4,0.2l1.8-1.7c0.6-0.5,0.9-0.8,1.2-0.8c0.4,0,0.8,0.4,0.8,0.8c0,0,0,0,0,0c0,0.4-0.2,0.6-1.4,1.1
			l-2.3,0.8c0,0.1,0.1,0.2,0,0.2c0,0.1,0,0.2,0,0.3l2.6,1c0.6,0.2,1,0.5,1,1c0,0.4-0.3,0.8-0.8,0.8c-0.4,0-0.9-0.5-1-0.6l-2-1.8
			c-0.1,0.1-0.3,0.2-0.4,0.2l0.4,2.3c0.1,0.3,0.1,0.7,0.2,1c0,0.5-0.2,1-0.8,1s-0.8-0.5-0.8-0.9c0-0.4,0.1-0.7,0.1-1.1l0.5-2.3
			c-0.2,0-0.3,0-0.5-0.2L11.1,19.1z"/>
	</g>
</g>
</svg>
