<svg xmlns="http://www.w3.org/2000/svg" viewBox="5124.437 -1761.002 30.563 16.863">
  <defs>
    <style>
      .cls-1 {
        fill: none;
      }

      .cls-2, .cls-3 {
        stroke: none;
      }

      .cls-3 {
        fill: #707070;
      }
    </style>
  </defs>
  <g id="Union_117" data-name="Union 117" class="cls-1" transform="translate(13394.437 -6977)">
    <path class="cls-2" d="M-8253.137,5232.862H-8267a3,3,0,0,1-3-3V5219a3,3,0,0,1,3-3h18.636s8.9,7.121,8.927,8.586-8.731,8.277-8.731,8.277Z"/>
    <path class="cls-3" d="M -8248.6865234375 5231.36181640625 C -8248.0185546875 5230.8330078125 -8246.607421875 5229.70458984375 -8245.1513671875 5228.46240234375 C -8242.5009765625 5226.201171875 -8241.484375 5225.08642578125 -8241.1015625 5224.59521484375 C -8241.4912109375 5224.09130859375 -8242.5302734375 5222.93701171875 -8245.255859375 5220.55810546875 C -8246.7529296875 5219.2509765625 -8248.208984375 5218.05517578125 -8248.8935546875 5217.49853515625 L -8249.814453125 5217.49853515625 L -8266.9990234375 5217.49853515625 C -8267.826171875 5217.49853515625 -8268.5 5218.171875 -8268.5 5218.99951171875 L -8268.5 5229.86279296875 C -8268.5 5230.689453125 -8267.826171875 5231.36181640625 -8266.9990234375 5231.36181640625 L -8253.13671875 5231.36181640625 L -8248.6865234375 5231.36181640625 M -8248.16796875 5232.86181640625 L -8253.13671875 5232.86181640625 L -8266.9990234375 5232.86181640625 C -8268.6572265625 5232.86181640625 -8270 5231.51904296875 -8270 5229.86279296875 L -8270 5218.99951171875 C -8270 5217.34375 -8268.6572265625 5215.99853515625 -8266.9990234375 5215.99853515625 L -8249.814453125 5215.99853515625 L -8248.36328125 5215.99853515625 C -8248.36328125 5215.99853515625 -8239.4658203125 5223.11962890625 -8239.4365234375 5224.5849609375 C -8239.4091796875 5226.05029296875 -8248.16796875 5232.86181640625 -8248.16796875 5232.86181640625 Z"/>
  </g>
</svg>
