<svg xmlns="http://www.w3.org/2000/svg" viewBox="0 0 20 20"><defs><style>.cls-1{isolation:isolate;}.cls-2{fill:#5a5a5a;}</style></defs><title>tagStar</title><g id="_20x20_icons" data-name="20x20 icons"><g class="cls-1"><path class="cls-2" d="M14.14,6.08a2.82,2.82,0,0,1,1.67-.9,1.24,1.24,0,0,1,1.11,1.29c0,.81-.43,1.2-1.76,1.67l-3.9,1.41a1.08,1.08,0,0,1,0,.82L15,11.69c.64.21,2,.73,2,1.8a1.36,1.36,0,0,1-1.2,1.29,3.36,3.36,0,0,1-2.06-1.24L11,10.88a1,1,0,0,1-.73.39l.73,3.9a14.08,14.08,0,0,1,.17,1.76A1.23,1.23,0,0,1,10,18.21a1.21,1.21,0,0,1-1.29-1.33,10.4,10.4,0,0,1,.3-1.8l.73-3.81a.89.89,0,0,1-.69-.39L6.21,13.54c-.9.81-1.46,1.2-2,1.2A1.26,1.26,0,0,1,3,13.41c0-.64.3-1,2.19-1.71l3.6-1.33A.86.86,0,0,1,8.73,10a1.27,1.27,0,0,1,.09-.43L4.7,8c-1-.39-1.58-.86-1.58-1.54a1.29,1.29,0,0,1,1.2-1.33c.6,0,1.5.81,1.63.94L9.08,9a1,1,0,0,1,.69-.34L9.08,5a9.1,9.1,0,0,1-.26-1.63c0-.86.39-1.54,1.24-1.54,1.07,0,1.2.86,1.2,1.41A10.08,10.08,0,0,1,11,5l-.73,3.69c.3,0,.47.09.73.34Z"/></g></g></svg>